<svg id="Layer_1" data-name="Layer 1" xmlns="http://www.w3.org/2000/svg" viewBox="0 0 89.99 71.99"><defs><style>.cls-1{fill:#fff;}</style></defs><title>logo</title><path class="cls-1" d="M343,457.88a13.85,13.85,0,0,1-3.5,1c-18.5.06-37,0-55.49,0,6.69-2.37,7.56-4.29,5.22-11.91-2.75,0-5.65.43-8.33-.15-1.76-.39-4.53-2.18-4.58-3.44-0.39-9.52-.21-19.06-0.21-29,4.3,0,8.67,1.21,11.34-.4,2-1.2,1.83-6,2.84-10.13H276v-17h67v31a7.4,7.4,0,0,1-1-1.61c-2.67-9.16-8.42-14.08-17.82-13.11-5.53.57-10.8,3.58-16,5.43-0.89-5.42-1.18-5.56-10.82-4.11v53h12.06c0-2.47,0-4.61,0-6.75,0.16-8.15.07-16.32,0.6-24.45,0.49-7.62,5.54-12.14,12.16-11.67,5.93,0.42,7.87,3.36,7.87,12,0,10.27,0,20.54,0,31.28H343Z" transform="translate(-253 -386.89)"/><path d="M343,457.88H330.07c0-10.74,0-21,0-31.28,0-8.61-1.95-11.55-7.87-12-6.62-.46-11.66,4-12.16,11.67-0.53,8.13-.44,16.3-0.6,24.45,0,2.14,0,4.28,0,6.75H297.37v-53c9.64-1.45,9.92-1.31,10.82,4.11,5.22-1.85,10.5-4.86,16-5.43,9.4-1,15.15,4,17.82,13.11a7.4,7.4,0,0,0,1,1.61v40Z" transform="translate(-253 -386.89)"/><path d="M276,386.89v17h14.26c-1,4.09-.83,8.93-2.84,10.13-2.67,1.61-7,.4-11.34.4,0,9.92-.18,19.46.21,29,0.05,1.26,2.82,3.06,4.58,3.44,2.68,0.59,5.59.15,8.33,0.15,2.34,7.63,1.47,9.55-5.22,11.91h-8c-3-1.61-7.08-2.5-8.76-5a26.13,26.13,0,0,1-4-12.36c-0.58-8.87-.18-17.8-0.18-27.11l-10.08.48v-11h10.09V390.64L275,386.89h1Z" transform="translate(-253 -386.89)"/><path class="cls-1" d="M253,414.89l10.08-.48c0,9.31-.41,18.24.18,27.11a26.13,26.13,0,0,0,4,12.36c1.67,2.5,5.75,3.39,8.76,5H253v-44Z" transform="translate(-253 -386.89)"/><path class="cls-1" d="M275,386.89l-11.91,3.75v13.25H253v-17h22Z" transform="translate(-253 -386.89)"/></svg>